<?xml version="1.0" encoding="UTF-8"?>
<svg version="1.1" xmlns="http://www.w3.org/2000/svg" width="500" height="500">
<path d="M0 0 C1.16822296 0.00223572 1.16822296 0.00223572 2.36004639 0.0045166 C15.54491538 0.04960918 28.39160896 0.87989904 41.375 3.3125 C42.15891113 3.45703613 42.94282227 3.60157227 43.75048828 3.75048828 C62.70079104 7.35835743 80.84956905 13.29094812 98.375 21.3125 C99.06013672 21.62413086 99.74527344 21.93576172 100.45117188 22.25683594 C116.95241343 29.86350583 132.36783733 39.75529223 146.375 51.3125 C147.22288086 52.00811035 147.22288086 52.00811035 148.08789062 52.71777344 C160.41126724 62.88761621 171.52448197 73.70243969 181.375 86.3125 C182.16390625 87.28445312 182.9528125 88.25640625 183.765625 89.2578125 C220.63586707 135.51953132 237.49965658 197.21409652 231.6875 255.875 C231.31679417 259.03244952 230.86434198 262.17137884 230.375 265.3125 C230.16496338 266.67665039 230.16496338 266.67665039 229.95068359 268.06835938 C220.41846009 327.18200297 187.78868535 382.68286848 139.375 418.3125 C138.10269531 419.25996094 138.10269531 419.25996094 136.8046875 420.2265625 C129.63625164 425.40770921 122.03205635 429.9000246 114.375 434.3125 C113.77558594 434.65958008 113.17617188 435.00666016 112.55859375 435.36425781 C89.21141419 448.74398764 62.8550849 456.99209474 36.375 461.3125 C35.69356934 461.42964355 35.01213867 461.54678711 34.31005859 461.66748047 C-23.63021196 471.25533444 -86.23333071 455.04256724 -133.625 421.125 C-135.30079818 419.86623251 -136.96788811 418.59576744 -138.625 417.3125 C-139.46160156 416.66796875 -140.29820312 416.0234375 -141.16015625 415.359375 C-156.85226456 403.03852334 -171.49992975 389.09077023 -183.36621094 373.015625 C-184.59569396 371.35215069 -185.84716212 369.70722448 -187.1015625 368.0625 C-222.05363779 321.50131781 -236.89049927 259.61148289 -229.4375 202.0625 C-228.90986413 198.46309881 -228.29534817 194.88791019 -227.625 191.3125 C-227.45871094 190.41740723 -227.29242188 189.52231445 -227.12109375 188.60009766 C-215.94704129 130.60883467 -182.87436776 77.6084206 -134.625 43.3125 C-134.01366211 42.87244629 -133.40232422 42.43239258 -132.77246094 41.97900391 C-105.99320365 22.84571668 -75.88655925 11.05135905 -43.875 4.0625 C-43.19211914 3.91127686 -42.50923828 3.76005371 -41.80566406 3.60424805 C-27.97693235 0.76046218 -14.07935953 -0.06736355 0 0 Z " fill="#7054FE" transform="translate(259.625,18.6875)"/>
<path d="M0 0 C4 5 4 5 5.796875 7.42578125 C18.79823089 22.61708184 42.25491858 26.72290185 61 29 C62.2569165 29.17112305 63.51383301 29.34224609 64.80883789 29.51855469 C77.43079312 31.16413421 89.91311519 31.23317757 102.625 31.125 C104.71093314 31.11493714 106.79687105 31.10581721 108.8828125 31.09765625 C113.92199595 31.07593453 118.96094301 31.04159222 124 31 C124 33.97 124 36.94 124 40 C125.010625 40.061875 126.02125 40.12375 127.0625 40.1875 C132.5266171 41.01539653 136.17377965 43.66777401 139.55078125 47.98046875 C143.0292733 53.51666032 144.22940024 58.5380285 143 65 C140.83877597 71.41128659 137.13708872 75.41246755 131.4609375 78.9765625 C128.67973306 80.13319038 126.91581004 80.04911659 123.9375 79.875 C121.35370781 79.82771488 121.35370781 79.82771488 119 81 C117.02359584 84.07525435 115.5700636 87.09925634 114.1003418 90.43139648 C107.3739217 105.51301858 94.02386056 117.29652859 79 124 C78.34 124 77.68 124 77 124 C77 127.63 77 131.26 77 135 C78.4334375 135.10183594 79.866875 135.20367187 81.34375 135.30859375 C86.99286585 135.87966295 92.12052638 137.29209548 97.5 139.0625 C98.92795898 139.52668335 98.92795898 139.52668335 100.38476562 140.00024414 C151.82400643 157.15380685 186.85741247 193.50348732 211 241 C196.05369713 258.58460757 177.91558418 271.52339316 158 283 C157.40058594 283.34708008 156.80117188 283.69416016 156.18359375 284.05175781 C132.83641419 297.43148764 106.4800849 305.67959474 80 310 C79.31856934 310.11714355 78.63713867 310.23428711 77.93505859 310.35498047 C19.99478804 319.94283444 -42.60833071 303.73006724 -90 269.8125 C-91.67579818 268.55373251 -93.34288811 267.28326744 -95 266 C-95.83660156 265.35546875 -96.67320313 264.7109375 -97.53515625 264.046875 C-103.59677293 259.28752218 -109.33327175 254.21961075 -115 249 C-115.65871094 248.44183594 -116.31742187 247.88367188 -116.99609375 247.30859375 C-118.6875 245.8125 -118.6875 245.8125 -121 243 C-120.82548284 237.42376134 -118.20620528 232.93170194 -115.625 228.125 C-114.95670166 226.87360229 -114.95670166 226.87360229 -114.27490234 225.59692383 C-91.52068504 183.83059367 -52.68890169 152.34512611 -7.21484375 138.52734375 C-5.60292447 138.05522069 -3.98965795 137.58767014 -2.375 137.125 C-1.62855225 136.90932373 -0.88210449 136.69364746 -0.11303711 136.47143555 C4.03129079 135.33791603 7.66082358 134.76729969 12 135 C12 131.37 12 127.74 12 124 C11.13375 123.74863281 10.2675 123.49726563 9.375 123.23828125 C-7.39925019 117.08383992 -20.55784203 101.61637935 -28.03125 85.8203125 C-28.72188374 84.22801805 -29.36754122 82.61628354 -30 81 C-30.7734375 80.98582031 -31.546875 80.97164063 -32.34375 80.95703125 C-41.05576023 80.55809019 -46.34665065 78.8456309 -52.375 72.5 C-56.09105764 66.78298825 -56.82261573 61.74544899 -56 55 C-53.91314733 48.17030036 -49.85174283 44.3110457 -43.8125 40.6875 C-42 40 -42 40 -39 40 C-38.49384702 41.26839526 -37.99530901 42.53983102 -37.5 43.8125 C-37.2215625 44.52019531 -36.943125 45.22789062 -36.65625 45.95703125 C-36 48 -36 48 -36 51 C-28.62614702 50.12359944 -23.2247784 48.43159255 -18 43 C-10.21003424 32.95418998 -6.17410681 21.3679699 -2.89453125 9.2265625 C-2.03052551 6.1101051 -1.04879714 3.05860664 0 0 Z " fill="#FEFEFE" transform="translate(216,170)"/>
<path d="M0 0 C15.32248992 13.30270716 24.71357936 31.18383865 26.56298828 51.43505859 C27.92031316 72.26375715 23.65457377 94.98727455 9.828125 111.36328125 C9.003125 112.18828125 8.178125 113.01328125 7.328125 113.86328125 C6.80863281 113.58613281 6.28914062 113.30898437 5.75390625 113.0234375 C1.96596495 111.05594858 -1.37886613 109.39990736 -5.671875 108.86328125 C-5.671875 105.89328125 -5.671875 102.92328125 -5.671875 99.86328125 C-6.89982788 100.10449707 -6.89982788 100.10449707 -8.15258789 100.35058594 C-12.10978572 100.92707678 -15.99113941 101.04307825 -19.98046875 101.06640625 C-20.77591599 101.07328461 -21.57136322 101.08016296 -22.39091492 101.08724976 C-24.96378155 101.10442378 -27.53645397 101.11071281 -30.109375 101.11328125 C-30.98503113 101.114953 -31.86068726 101.11662476 -32.76287842 101.11834717 C-45.85495763 101.11984673 -58.57417275 100.48217025 -71.49755859 98.23046875 C-74.52263729 97.71960884 -77.56580363 97.37102783 -80.609375 96.98828125 C-96.83595021 94.37661611 -115.48249495 88.10003613 -126.1796875 75.01953125 C-127.296875 73.36328125 -127.296875 73.36328125 -128.671875 70.86328125 C-130.42408024 73.92569401 -131.3199476 77.0497624 -132.21850586 80.44775391 C-135.85908569 94.07879784 -141.20379644 108.55373252 -152.859375 117.23828125 C-157.32177219 119.81655518 -160.58188917 119.95931872 -165.671875 119.86328125 C-166.17555257 118.40621399 -166.67470056 116.94758029 -167.171875 115.48828125 C-167.4503125 114.67617187 -167.72875 113.8640625 -168.015625 113.02734375 C-168.671875 110.86328125 -168.671875 110.86328125 -168.671875 108.86328125 C-175.66476636 111.80980052 -179.77662787 114.29005172 -183.671875 120.86328125 C-184.331875 121.85328125 -184.991875 122.84328125 -185.671875 123.86328125 C-198.88086316 103.95611824 -202.74311302 81.77748147 -199.26904297 58.12011719 C-197.44817751 49.65545871 -193.73711201 41.86369855 -188.671875 34.86328125 C-188.21039063 34.22003906 -187.74890625 33.57679688 -187.2734375 32.9140625 C-182.98808219 27.45674538 -177.28175294 23.0665739 -170.671875 20.86328125 C-169.26230501 18.34710741 -169.26230501 18.34710741 -167.984375 15.30078125 C-160.51721196 -0.05141526 -144.22743139 -7.68818761 -128.671875 -13.13671875 C-88.85613705 -26.17234532 -34.33482956 -27.45782422 0 0 Z " fill="#002C5C" transform="translate(345.671875,101.13671875)"/>
<path d="M0 0 C4 5 4 5 5.796875 7.42578125 C18.79823089 22.61708184 42.25491858 26.72290185 61 29 C62.2569165 29.17112305 63.51383301 29.34224609 64.80883789 29.51855469 C77.43079312 31.16413421 89.91311519 31.23317757 102.625 31.125 C104.71093314 31.11493714 106.79687105 31.10581721 108.8828125 31.09765625 C113.92199595 31.07593453 118.96094301 31.04159222 124 31 C124 33.97 124 36.94 124 40 C125.010625 40.061875 126.02125 40.12375 127.0625 40.1875 C132.5266171 41.01539653 136.17377965 43.66777401 139.55078125 47.98046875 C143.0292733 53.51666032 144.22940024 58.5380285 143 65 C140.83877597 71.41128659 137.13708872 75.41246755 131.4609375 78.9765625 C128.67973306 80.13319038 126.91581004 80.04911659 123.9375 79.875 C121.35370781 79.82771488 121.35370781 79.82771488 119 81 C117.02359584 84.07525435 115.5700636 87.09925634 114.1003418 90.43139648 C107.3739217 105.51301858 94.02386056 117.29652859 79 124 C78.34 124 77.68 124 77 124 C77.02094727 124.6391333 77.04189453 125.2782666 77.06347656 125.93676758 C77.74466279 149.84511083 77.74466279 149.84511083 73 158 C72.5875 158.72960937 72.175 159.45921875 71.75 160.2109375 C66.95793904 167.53516703 59.30553396 171.70450066 51 174 C40.10854933 175.10979237 31.31010532 173.71700705 22.6875 166.8125 C18.74635215 163.10224768 16.15735662 158.9418518 14 154 C13.62875 153.17371094 13.2575 152.34742188 12.875 151.49609375 C11.55424378 146.21896509 11.79208107 141.04024421 11.875 135.625 C11.88402344 134.50738281 11.89304687 133.38976562 11.90234375 132.23828125 C11.92581654 129.49196538 11.95865272 126.74609528 12 124 C11.13375 123.74863281 10.2675 123.49726563 9.375 123.23828125 C-7.39925019 117.08383992 -20.55784203 101.61637935 -28.03125 85.8203125 C-28.72188374 84.22801805 -29.36754122 82.61628354 -30 81 C-30.7734375 80.98582031 -31.546875 80.97164063 -32.34375 80.95703125 C-41.05576023 80.55809019 -46.34665065 78.8456309 -52.375 72.5 C-56.09105764 66.78298825 -56.82261573 61.74544899 -56 55 C-53.91314733 48.17030036 -49.85174283 44.3110457 -43.8125 40.6875 C-42 40 -42 40 -39 40 C-38.49384702 41.26839526 -37.99530901 42.53983102 -37.5 43.8125 C-37.2215625 44.52019531 -36.943125 45.22789062 -36.65625 45.95703125 C-36 48 -36 48 -36 51 C-28.62614702 50.12359944 -23.2247784 48.43159255 -18 43 C-10.21003424 32.95418998 -6.17410681 21.3679699 -2.89453125 9.2265625 C-2.03052551 6.1101051 -1.04879714 3.05860664 0 0 Z " fill="#FEC8AB" transform="translate(216,170)"/>
<path d="M0 0 C2.60453175 0.64438933 5.2086291 1.2904504 7.8125 1.9375 C8.55048828 2.11990234 9.28847656 2.30230469 10.04882812 2.49023438 C13.07060984 3.2422615 16.04456718 4.01485573 19 5 C31.83288085 5.85122627 44.6635015 5.82554292 57 2 C59.66127669 1.30992548 62.32987435 0.65542038 65 0 C65.84422565 24.53774331 65.84422565 24.53774331 61 33 C60.38125 34.09634766 60.38125 34.09634766 59.75 35.21484375 C54.95182036 42.53479394 47.30659179 46.7042083 39 49 C28.10854933 50.10979237 19.31010532 48.71700705 10.6875 41.8125 C6.74635215 38.10224768 4.15735662 33.9418518 2 29 C1.62875 28.16339844 1.2575 27.32679688 0.875 26.46484375 C-0.41617354 21.35202709 -0.20903708 16.37408508 -0.125 11.125 C-0.11597656 10.05507813 -0.10695312 8.98515625 -0.09765625 7.8828125 C-0.07419342 5.25497561 -0.04136459 2.62760594 0 0 Z " fill="#FF9561" transform="translate(228,295)"/>
<path d="M0 0 C0.50615298 1.26839526 1.00469099 2.53983102 1.5 3.8125 C1.7784375 4.52019531 2.056875 5.22789062 2.34375 5.95703125 C3 8 3 8 3 11 C4.32 11.33 5.64 11.66 7 12 C6.01 12 5.02 12 4 12 C4.33184084 21.83908078 6.2136397 30.63005352 9 40 C1.94912322 40.52881576 -3.53565248 40.73229952 -9.3828125 36.42578125 C-13.7622494 32.5646835 -16.58814345 28.60686492 -17.2578125 22.7421875 C-17.53826802 16.62825707 -16.62828411 11.99723793 -13 7 C-9.34258182 3.15677715 -5.41729117 0 0 0 Z " fill="#FB9363" transform="translate(177,210)"/>
<path d="M0 0 C6.09252616 0.69795049 9.66349314 1.68409412 14 6 C17.98986171 11.09536496 19.86607632 16.01915006 19.47265625 22.515625 C18.23702674 29.01033878 15.04890501 33.59805862 9.8125 37.5625 C4.93474083 40.54335282 0.57413446 40.62839929 -5 40 C-4.79503906 39.19175781 -4.59007812 38.38351563 -4.37890625 37.55078125 C-4.10949219 36.48214844 -3.84007812 35.41351563 -3.5625 34.3125 C-3.29566406 33.25675781 -3.02882813 32.20101562 -2.75390625 31.11328125 C-1.64180283 26.52081272 -0.8685475 22.21000047 -0.68359375 17.48046875 C-0.64169922 16.45888672 -0.59980469 15.43730469 -0.55664062 14.38476562 C-0.51732422 13.32966797 -0.47800781 12.27457031 -0.4375 11.1875 C-0.39431641 10.11306641 -0.35113281 9.03863281 -0.30664062 7.93164062 C-0.20089017 5.28787918 -0.09879767 2.6440289 0 0 Z " fill="#FC9464" transform="translate(340,210)"/>
</svg>
