<svg xmlns="http://www.w3.org/2000/svg" xmlns:xlink="http://www.w3.org/1999/xlink" width="500" zoomAndPan="magnify" viewBox="0 0 375 374.999991" height="500" preserveAspectRatio="xMidYMid meet" version="1.0"><defs><g/><clipPath id="2a8f95dd5f"><rect x="0" width="303" y="0" height="317"/></clipPath><clipPath id="f729ab873f"><rect x="0" width="67" y="0" height="298"/></clipPath></defs><g transform="matrix(1, 0, 0, 1, 0, 29)"><g clip-path="url(#2a8f95dd5f)"><g fill="#737373" fill-opacity="1"><g transform="translate(0.0000045, 249.412617)"><g><path d="M 126.265625 -103.359375 C 136.566406 -98.554688 144.601562 -92.289062 150.375 -84.5625 C 156.144531 -76.84375 159.03125 -67.921875 159.03125 -57.796875 C 159.03125 -37.910156 152.503906 -23.304688 139.453125 -13.984375 C 126.398438 -4.660156 110.101562 0 90.5625 0 L 25.3125 0 L 25.3125 -196.046875 L 82.84375 -196.046875 C 103.625 -196.046875 119.960938 -191.828125 131.859375 -183.390625 C 143.753906 -174.960938 149.703125 -162.753906 149.703125 -146.765625 C 149.703125 -137.003906 147.660156 -128.4375 143.578125 -121.0625 C 139.492188 -113.695312 133.722656 -107.796875 126.265625 -103.359375 Z M 63.9375 -115.875 L 87.375 -115.875 C 94.476562 -115.875 99.984375 -118.046875 103.890625 -122.390625 C 107.796875 -126.742188 109.75 -132.117188 109.75 -138.515625 C 109.75 -145.085938 107.523438 -150.101562 103.078125 -153.5625 C 98.640625 -157.03125 92.515625 -158.765625 84.703125 -158.765625 L 63.9375 -158.765625 Z M 88.703125 -35.953125 C 97.753906 -35.953125 105.078125 -37.769531 110.671875 -41.40625 C 116.265625 -45.050781 119.0625 -50.515625 119.0625 -57.796875 C 119.0625 -71.648438 108.054688 -78.578125 86.046875 -78.578125 L 63.9375 -78.578125 L 63.9375 -35.953125 Z M 88.703125 -35.953125 "/></g></g></g><g fill="#d9d9d9" fill-opacity="1"><g transform="translate(97.492715, 200.261093)"><g><path d="M 184.328125 -19.71875 C 181.304688 -16.519531 175.929688 -13.1875 168.203125 -9.71875 C 160.484375 -6.257812 151.960938 -3.421875 142.640625 -1.203125 C 133.316406 1.015625 124.835938 2.125 117.203125 2.125 C 96.429688 2.125 78.1875 -1.910156 62.46875 -9.984375 C 46.75 -18.066406 34.625 -29.253906 26.09375 -43.546875 C 17.570312 -57.847656 13.3125 -74.144531 13.3125 -92.4375 C 13.3125 -115.34375 17.835938 -134.738281 26.890625 -150.625 C 35.953125 -166.519531 48.117188 -178.421875 63.390625 -186.328125 C 78.671875 -194.234375 95.546875 -198.1875 114.015625 -198.1875 C 125.910156 -198.1875 137.09375 -196.851562 147.5625 -194.1875 C 158.039062 -191.519531 167.28125 -188.054688 175.28125 -183.796875 L 162.75 -147.84375 C 157.601562 -150.675781 150.546875 -153.289062 141.578125 -155.6875 C 132.609375 -158.09375 125.101562 -159.296875 119.0625 -159.296875 C 97.757812 -159.296875 81.46875 -153.96875 70.1875 -143.3125 C 58.914062 -132.65625 53.28125 -116.847656 53.28125 -95.890625 C 53.28125 -83.816406 56.03125 -73.296875 61.53125 -64.328125 C 67.039062 -55.359375 74.722656 -48.476562 84.578125 -43.6875 C 94.429688 -38.894531 105.660156 -36.5 118.265625 -36.5 C 130.347656 -36.5 139.316406 -38.179688 145.171875 -41.546875 L 145.171875 -65.265625 L 111.34375 -65.265625 L 111.34375 -102.546875 L 184.328125 -102.546875 Z M 184.328125 -19.71875 "/></g></g></g></g></g><path stroke-linecap="butt" transform="matrix(0, -0.75, 0.75, 0, 306.11398, 326.395263)" fill="none" stroke-linejoin="miter" d="M 0.000975089 5.499069 L 395.532251 5.499069 " stroke="#ff3131" stroke-width="11" stroke-opacity="1" stroke-miterlimit="4"/><g transform="matrix(1, 0, 0, 1, 308, 29)"><g clip-path="url(#f729ab873f)"><g fill="#ff3131" fill-opacity="1"><g transform="translate(20.727689, 0.756937)"><g><path d="M 2.59375 26.96875 C 1.550781 25.664062 0.742188 23.972656 0.171875 21.890625 C -0.390625 19.816406 -0.671875 17.265625 -0.671875 14.234375 C -0.671875 11.210938 -0.394531 7.992188 0.15625 4.578125 L 35.28125 4.578125 C 35.820312 8.023438 36.09375 11.015625 36.09375 13.546875 C 36.09375 16.078125 35.851562 18.15625 35.375 19.78125 C 34.894531 21.40625 34.25 22.734375 33.4375 23.765625 C 31.851562 25.785156 29.804688 26.796875 27.296875 26.796875 C 24.785156 26.796875 22.703125 25.882812 21.046875 24.0625 C 20.367188 26.226562 19.085938 27.90625 17.203125 29.09375 C 15.515625 30.175781 13.644531 30.71875 11.59375 30.71875 C 9.550781 30.71875 7.800781 30.421875 6.34375 29.828125 C 4.882812 29.234375 3.632812 28.28125 2.59375 26.96875 Z M 22.03125 11.640625 C 21.90625 12.390625 21.84375 13.320312 21.84375 14.4375 C 21.84375 15.5625 21.988281 16.484375 22.28125 17.203125 C 22.570312 17.921875 22.941406 18.472656 23.390625 18.859375 C 24.117188 19.503906 25.128906 19.828125 26.421875 19.828125 C 29.140625 19.828125 30.5 18.226562 30.5 15.03125 C 30.5 13.675781 30.445312 12.546875 30.34375 11.640625 Z M 16.328125 15.578125 C 16.328125 14.085938 16.226562 12.773438 16.03125 11.640625 L 5.5625 11.640625 C 5.25 12.878906 5.09375 14.179688 5.09375 15.546875 C 5.09375 16.921875 5.253906 18.128906 5.578125 19.171875 C 5.910156 20.210938 6.359375 21.085938 6.921875 21.796875 C 8.097656 23.234375 9.59375 23.953125 11.40625 23.953125 C 14.6875 23.953125 16.328125 21.160156 16.328125 15.578125 Z M 16.328125 15.578125 "/></g></g></g><g fill="#ff3131" fill-opacity="1"><g transform="translate(20.727689, 32.64091)"><g><path d="M -0.21875 7.171875 C -0.0703125 5.640625 0 3.851562 0 1.8125 L 0 -0.296875 L 32.46875 11.296875 C 33.925781 11.804688 34.773438 12.0625 35.015625 12.0625 C 35.253906 12.0625 35.398438 12.054688 35.453125 12.046875 L 35.515625 12.0625 C 35.460938 13.21875 35.4375 14.445312 35.4375 15.75 C 35.4375 16.8125 35.453125 18.085938 35.484375 19.578125 L 35.4375 19.609375 C 35.363281 19.578125 35.265625 19.5625 35.140625 19.5625 C 34.804688 19.5625 33.910156 19.828125 32.453125 20.359375 L -0.078125 32.1875 C -0.0546875 31.832031 -0.046875 31.414062 -0.046875 30.9375 C -0.046875 30.9375 -0.03125 30.472656 0 29.546875 C 0 29.097656 0 28.695312 0 28.34375 L 0 24.21875 L 7.671875 21.71875 L 7.671875 9.671875 Z M 14.0625 19.640625 L 26.453125 15.609375 L 14.0625 11.703125 Z M 14.0625 19.640625 "/></g></g></g><g fill="#ff3131" fill-opacity="1"><g transform="translate(20.727689, 64.524883)"><g><path d="M 13.78125 16.03125 C 13.738281 15.5 13.71875 14.929688 13.71875 14.328125 C 13.71875 13.722656 13.765625 12.828125 13.859375 11.640625 L 0 11.640625 L 0 4.578125 L 35.625 4.578125 C 35.9375 7.066406 36.09375 10.125 36.09375 13.75 C 36.09375 18.6875 35.179688 22.363281 33.359375 24.78125 C 31.546875 27.207031 28.738281 28.421875 24.9375 28.421875 C 21.988281 28.421875 19.46875 27.3125 17.375 25.09375 C 16.695312 24.363281 16.109375 23.53125 15.609375 22.59375 L 4.15625 28.03125 C 1.789062 29.09375 0.390625 29.910156 -0.046875 30.484375 L -0.1875 30.34375 C 0.09375 28.625 0.0820312 25.914062 -0.21875 22.21875 Z M 29.8125 14.25 C 29.8125 13.34375 29.765625 12.472656 29.671875 11.640625 L 19.5 11.640625 C 19.375 12.515625 19.3125 13.535156 19.3125 14.703125 C 19.3125 15.878906 19.410156 16.863281 19.609375 17.65625 C 19.816406 18.457031 20.132812 19.148438 20.5625 19.734375 C 21.507812 21.003906 22.921875 21.640625 24.796875 21.640625 C 26.679688 21.640625 28.003906 20.976562 28.765625 19.65625 C 29.460938 18.4375 29.8125 16.632812 29.8125 14.25 Z M 29.8125 14.25 "/></g></g></g><g fill="#ff3131" fill-opacity="1"><g transform="translate(20.727689, 96.302309)"><g><path d="M 21.359375 33.78125 C 20.765625 33.445312 19.320312 33.28125 17.03125 33.28125 L 8.765625 33.28125 C 6.265625 33.28125 4.085938 31.984375 2.234375 29.390625 C 0.296875 26.703125 -0.671875 23.414062 -0.671875 19.53125 C -0.671875 14.125 1.023438 9.816406 4.421875 6.609375 C 7.648438 3.492188 11.769531 1.9375 16.78125 1.9375 C 22.113281 1.9375 26.554688 3.519531 30.109375 6.6875 C 34.097656 10.21875 36.09375 15.082031 36.09375 21.28125 C 36.09375 25.425781 35.296875 28.707031 33.703125 31.125 L 25.84375 30.6875 L 25.796875 30.484375 C 26.878906 29.859375 27.765625 28.628906 28.453125 26.796875 C 29.109375 25.054688 29.4375 23.234375 29.4375 21.328125 C 29.4375 19.421875 29.132812 17.75 28.53125 16.3125 C 27.925781 14.882812 27.066406 13.675781 25.953125 12.6875 C 23.660156 10.582031 20.628906 9.53125 16.859375 9.53125 C 13.578125 9.53125 10.941406 10.457031 8.953125 12.3125 C 6.984375 14.15625 6 16.535156 6 19.453125 C 6 22.660156 6.832031 24.828125 8.5 25.953125 C 9.03125 26.304688 9.632812 26.484375 10.3125 26.484375 L 14.734375 26.484375 L 14.734375 23.046875 C 14.734375 21.203125 14.570312 20.195312 14.25 20.03125 L 14.28125 19.953125 L 21.234375 19.71875 C 21.085938 20.21875 21.015625 22.234375 21.015625 25.765625 L 21.015625 28.90625 C 21.015625 30.863281 21.148438 32.460938 21.421875 33.703125 Z M 21.359375 33.78125 "/></g></g></g><g fill="#ff3131" fill-opacity="1"><g transform="translate(20.727689, 132.634571)"><g><path d="M -0.21875 7.171875 C -0.0703125 5.640625 0 3.851562 0 1.8125 L 0 -0.296875 L 32.46875 11.296875 C 33.925781 11.804688 34.773438 12.0625 35.015625 12.0625 C 35.253906 12.0625 35.398438 12.054688 35.453125 12.046875 L 35.515625 12.0625 C 35.460938 13.21875 35.4375 14.445312 35.4375 15.75 C 35.4375 16.8125 35.453125 18.085938 35.484375 19.578125 L 35.4375 19.609375 C 35.363281 19.578125 35.265625 19.5625 35.140625 19.5625 C 34.804688 19.5625 33.910156 19.828125 32.453125 20.359375 L -0.078125 32.1875 C -0.0546875 31.832031 -0.046875 31.414062 -0.046875 30.9375 C -0.046875 30.9375 -0.03125 30.472656 0 29.546875 C 0 29.097656 0 28.695312 0 28.34375 L 0 24.21875 L 7.671875 21.71875 L 7.671875 9.671875 Z M 14.0625 19.640625 L 26.453125 15.609375 L 14.0625 11.703125 Z M 14.0625 19.640625 "/></g></g></g><g fill="#ff3131" fill-opacity="1"><g transform="translate(20.727689, 164.518544)"><g><path d="M -0.15625 11.78125 C -0.0507812 10.925781 0 9.28125 0 6.84375 L 0 4.71875 L 35.546875 4.71875 C 35.472656 5.851562 35.4375 7.101562 35.4375 8.46875 C 35.4375 9.84375 35.503906 10.8125 35.640625 11.375 L 20.4375 20.328125 L 35.640625 28.9375 C 35.503906 29.5 35.4375 30.578125 35.4375 32.171875 C 35.4375 33.773438 35.472656 35.144531 35.546875 36.28125 L 0 36.28125 L 0 34.15625 C 0 31.71875 -0.0507812 30.070312 -0.15625 29.21875 L 23.71875 29.21875 L 8.125 20.515625 L 22.453125 11.78125 Z M -0.15625 11.78125 "/></g></g></g><g fill="#ff3131" fill-opacity="1"><g transform="translate(20.727689, 205.51222)"><g><path d="M 35.546875 5.40625 C 35.472656 7.1875 35.4375 8.257812 35.4375 8.625 L 35.4375 10.546875 C 35.4375 11.492188 35.503906 12.25 35.640625 12.8125 L 0 12.78125 L 0 5.40625 Z M 35.546875 5.40625 "/></g></g></g><g fill="#ff3131" fill-opacity="1"><g transform="translate(20.727689, 223.731625)"><g><path d="M 0 4.828125 C 0.601562 4.929688 1.257812 4.984375 1.96875 4.984375 L 35.4375 4.984375 L 35.4375 10.3125 L 13.21875 24.4375 L 33.625 24.4375 C 34.601562 24.4375 35.207031 24.347656 35.4375 24.171875 L 35.4375 31.359375 C 34.726562 31.265625 33.945312 31.21875 33.09375 31.21875 L 0 31.21875 L 0 25.6875 L 21.34375 11.78125 L 0 11.78125 Z M 0 4.828125 "/></g></g></g><g fill="#ff3131" fill-opacity="1"><g transform="translate(20.727689, 259.93072)"><g><path d="M 21.359375 33.78125 C 20.765625 33.445312 19.320312 33.28125 17.03125 33.28125 L 8.765625 33.28125 C 6.265625 33.28125 4.085938 31.984375 2.234375 29.390625 C 0.296875 26.703125 -0.671875 23.414062 -0.671875 19.53125 C -0.671875 14.125 1.023438 9.816406 4.421875 6.609375 C 7.648438 3.492188 11.769531 1.9375 16.78125 1.9375 C 22.113281 1.9375 26.554688 3.519531 30.109375 6.6875 C 34.097656 10.21875 36.09375 15.082031 36.09375 21.28125 C 36.09375 25.425781 35.296875 28.707031 33.703125 31.125 L 25.84375 30.6875 L 25.796875 30.484375 C 26.878906 29.859375 27.765625 28.628906 28.453125 26.796875 C 29.109375 25.054688 29.4375 23.234375 29.4375 21.328125 C 29.4375 19.421875 29.132812 17.75 28.53125 16.3125 C 27.925781 14.882812 27.066406 13.675781 25.953125 12.6875 C 23.660156 10.582031 20.628906 9.53125 16.859375 9.53125 C 13.578125 9.53125 10.941406 10.457031 8.953125 12.3125 C 6.984375 14.15625 6 16.535156 6 19.453125 C 6 22.660156 6.832031 24.828125 8.5 25.953125 C 9.03125 26.304688 9.632812 26.484375 10.3125 26.484375 L 14.734375 26.484375 L 14.734375 23.046875 C 14.734375 21.203125 14.570312 20.195312 14.25 20.03125 L 14.28125 19.953125 L 21.234375 19.71875 C 21.085938 20.21875 21.015625 22.234375 21.015625 25.765625 L 21.015625 28.90625 C 21.015625 30.863281 21.148438 32.460938 21.421875 33.703125 Z M 21.359375 33.78125 "/></g></g></g></g></g></svg>