<svg xmlns="http://www.w3.org/2000/svg" xmlns:xlink="http://www.w3.org/1999/xlink" width="500" zoomAndPan="magnify" viewBox="0 0 375 374.999991" height="500" preserveAspectRatio="xMidYMid meet" version="1.0"><path fill="#5865f2" d="M 374.96875 187.492188 C 374.96875 290.976562 290.953125 374.992188 187.46875 374.992188 C 83.984375 374.992188 -0.03125 290.976562 -0.03125 187.492188 C -0.03125 84.007812 83.984375 -0.0078125 187.46875 -0.0078125 C 290.953125 -0.0078125 374.96875 84.007812 374.96875 187.492188 Z M 374.96875 187.492188 " fill-opacity="1" fill-rule="evenodd"/><path fill="#ffffff" d="M 276.058594 106.203125 C 276.199219 106.253906 276.324219 106.359375 276.394531 106.5 C 305.261719 148.976562 319.519531 196.890625 314.183594 252.042969 C 314.167969 252.273438 314.046875 252.484375 313.851562 252.625 C 291.992188 268.691406 270.8125 278.445312 249.921875 284.910156 C 249.585938 285.003906 249.226562 284.890625 249.023438 284.597656 C 244.199219 277.886719 239.816406 270.800781 235.972656 263.367188 C 235.753906 262.925781 235.957031 262.40625 236.40625 262.230469 C 243.371094 259.601562 249.992188 256.453125 256.359375 252.734375 C 256.863281 252.441406 256.898438 251.71875 256.429688 251.375 C 255.082031 250.371094 253.742188 249.3125 252.460938 248.261719 C 252.214844 248.066406 251.898438 248.023438 251.625 248.15625 C 210.277344 267.261719 164.992188 267.261719 123.152344 248.15625 C 122.878906 248.03125 122.554688 248.074219 122.324219 248.269531 C 121.046875 249.320312 119.703125 250.371094 118.363281 251.375 C 117.90625 251.71875 117.941406 252.441406 118.441406 252.734375 C 124.808594 256.382812 131.429688 259.601562 138.386719 262.238281 C 138.835938 262.414062 139.050781 262.925781 138.832031 263.367188 C 135.070312 270.816406 130.691406 277.898438 125.769531 284.609375 C 125.558594 284.890625 125.207031 285.003906 124.871094 284.910156 C 104.089844 278.445312 82.90625 268.691406 61.042969 252.625 C 60.855469 252.484375 60.730469 252.265625 60.703125 252.035156 C 56.25 204.324219 65.335938 156.011719 98.472656 106.492188 C 98.550781 106.359375 98.671875 106.253906 98.816406 106.203125 C 115.121094 98.707031 132.597656 93.195312 150.847656 90.054688 C 151.183594 90.003906 151.519531 90.152344 151.6875 90.453125 C 153.941406 94.449219 156.527344 99.570312 158.261719 103.757812 C 177.511719 100.824219 197.058594 100.824219 216.707031 103.757812 C 218.453125 99.65625 220.941406 94.449219 223.1875 90.453125 C 223.355469 90.144531 223.691406 89.996094 224.027344 90.054688 C 242.292969 93.214844 259.761719 98.714844 276.058594 106.203125 Z M 145.082031 222.980469 C 157.875 222.980469 168.050781 211.414062 168.050781 197.207031 C 168.253906 183.109375 157.972656 171.441406 145.082031 171.441406 C 132.277344 171.441406 122.101562 183.003906 122.101562 197.207031 C 122.101562 211.414062 132.480469 222.980469 145.082031 222.980469 Z M 230.019531 222.980469 C 242.921875 222.980469 252.992188 211.414062 252.992188 197.207031 C 253.195312 183.109375 242.921875 171.441406 230.019531 171.441406 C 217.226562 171.441406 207.042969 183.003906 207.042969 197.207031 C 207.042969 211.414062 217.421875 222.980469 230.019531 222.980469 Z M 230.019531 222.980469 " fill-opacity="1" fill-rule="evenodd"/></svg>