<?xml version="1.0" encoding="UTF-8"?>
<svg version="1.1" xmlns="http://www.w3.org/2000/svg" width="500" height="500">
<path d="M0 0 C1.23397514 -0.00367669 2.46795028 -0.00735338 3.73931861 -0.01114148 C7.15291338 -0.02023317 10.56646021 -0.02487027 13.98006248 -0.02753079 C17.66677972 -0.03144871 21.35348323 -0.0410261 25.04019165 -0.04974365 C33.93918397 -0.06946843 42.83817737 -0.0795702 51.73718607 -0.08847144 C55.9356898 -0.09286176 60.13419227 -0.09822672 64.33269501 -0.10346031 C78.30365359 -0.12047027 92.27461142 -0.13496146 106.24557877 -0.14220905 C109.86780041 -0.14411872 113.49002204 -0.14603908 117.11224365 -0.147995 C118.01244813 -0.14847874 118.91265262 -0.14896248 119.84013602 -0.14946087 C134.40244535 -0.15775008 148.96467224 -0.18306924 163.52694562 -0.21557567 C178.50331495 -0.24873175 193.47964252 -0.2666656 208.45604873 -0.26985329 C216.8542783 -0.27201073 225.25238774 -0.28064618 233.65058136 -0.30631447 C240.80734048 -0.32813879 247.96395027 -0.33601483 255.12073889 -0.32634769 C258.76468764 -0.32183635 262.40832908 -0.32350133 266.05223465 -0.34310913 C302.44533249 -0.52786691 332.76474922 8.18510332 359.12005615 34.14717102 C363.98800184 39.09714757 368.12566001 44.22226912 371.74505615 50.14717102 C372.09664795 50.71387512 372.44823975 51.28057922 372.81048584 51.86445618 C377.30066191 59.17391159 381.2009671 66.56867432 384.12005615 74.64717102 C384.45952271 75.56864929 384.45952271 75.56864929 384.80584717 76.50874329 C390.34143154 92.85357992 390.18938634 109.29998011 390.1518892 126.356884 C390.14711079 130.02707862 390.15970815 133.69722318 390.16990662 137.36740112 C390.18700922 144.53683858 390.18795252 151.70618807 390.18269371 158.87564062 C390.17863488 164.70892327 390.18011579 170.54218014 390.18544197 176.37546158 C390.18619039 177.20903118 390.18693881 178.04260079 390.18770992 178.90143008 C390.18924156 180.59539338 390.19077991 182.28935667 390.19232488 183.98331995 C390.20601894 199.83063058 390.20063399 215.67789169 390.18913967 231.52520116 C390.1792098 245.9873925 390.19214922 260.44945585 390.21607386 274.91162746 C390.24052162 289.8035376 390.25005887 304.69538827 390.24342114 319.58731806 C390.23994159 327.93115311 390.2420769 336.27488982 390.25967216 344.61870956 C390.27446537 351.7211313 390.27493735 358.82338542 390.25760125 365.92580412 C390.24914711 369.54132593 390.24680268 373.15654922 390.26225281 376.77205467 C390.34216843 396.92316159 389.01969362 414.52923673 380.74505615 433.14717102 C380.2655249 434.25189758 379.78599365 435.35662415 379.29193115 436.49482727 C367.21791459 462.48912993 344.74395888 483.33350671 317.9911499 493.64717102 C314.26127059 494.95399005 310.57144683 496.16898713 306.74505615 497.14717102 C305.86699877 497.39448723 304.98894138 497.64180344 304.0842762 497.89661407 C291.06615945 501.05771541 277.84401704 500.59018259 264.52629995 500.56866312 C260.83693797 500.56596729 257.14763504 500.58057219 253.45829773 500.59275818 C246.24828552 500.61370877 239.0383539 500.61835898 231.82831483 500.61657029 C225.96023148 500.61525723 220.09217305 500.61909442 214.22409439 500.62649536 C212.52698108 500.62859481 210.82986776 500.63069241 209.13275445 500.63278818 C208.28776316 500.63383171 207.44277188 500.63487524 206.5721748 500.63595039 C190.62654143 500.65481148 174.68095416 500.65381548 158.73531426 500.64698106 C144.1909979 500.6414106 129.64685796 500.66221721 115.1025828 500.69534153 C100.12367703 500.72918752 85.14485551 500.74423321 70.16591084 500.7396245 C61.77443023 500.73739055 53.38311256 500.74246413 44.99166489 500.76751709 C37.84572973 500.78867198 30.70004682 500.79198338 23.5541008 500.7732175 C19.91789761 500.76414542 16.28216288 500.76264886 12.645998 500.78357315 C-8.04067056 500.89477987 -27.44007679 499.47419914 -46.25494385 490.14717102 C-47.28361572 489.65732727 -48.3122876 489.16748352 -49.37213135 488.66279602 C-75.38300098 475.56379693 -95.53852591 452.0336436 -105.06744385 424.58467102 C-108.78477986 413.19110326 -110.70592934 401.9501461 -110.6426239 389.9677887 C-110.64800944 388.71895991 -110.65339498 387.47013113 -110.65894371 386.18345904 C-110.67066911 382.76078765 -110.66920286 379.33861066 -110.6617769 375.91596031 C-110.65700868 372.2075571 -110.66958718 368.49920394 -110.67979431 364.79081726 C-110.69691759 357.54223126 -110.69783571 350.2937322 -110.69258141 343.04513124 C-110.68852578 337.14744156 -110.68999973 331.2497774 -110.69532967 325.35208893 C-110.69607809 324.50992226 -110.69682651 323.66775559 -110.69759761 322.80006872 C-110.69912923 321.08871136 -110.70066758 319.37735399 -110.70221258 317.66599664 C-110.71591462 301.64653667 -110.71051648 285.62712565 -110.69902737 269.60766682 C-110.68910095 254.98691894 -110.70202951 240.36629773 -110.72596156 225.74556938 C-110.75040872 210.69552095 -110.75994645 195.64553138 -110.75330883 180.59546351 C-110.7498286 172.16105513 -110.75196894 163.72674403 -110.76955986 155.29235077 C-110.78435248 148.11119589 -110.78482602 140.93020681 -110.76748895 133.74905494 C-110.75903352 130.09304286 -110.75669351 126.43732603 -110.7721405 122.78133011 C-110.91182226 87.16267417 -102.26145263 57.28864045 -77.00494385 31.45967102 C-56.18729394 10.89036127 -29.19845716 -0.004683 0 0 Z M-46.25494385 65.14717102 C-46.58494385 66.13717102 -46.91494385 67.12717102 -47.25494385 68.14717102 C-47.91494385 68.14717102 -48.57494385 68.14717102 -49.25494385 68.14717102 C-50.80554749 70.17910152 -52.19885372 72.18362817 -53.56744385 74.33467102 C-54.17084595 75.28056091 -54.17084595 75.28056091 -54.78643799 76.24555969 C-62.57342862 88.82816827 -65.56373756 101.54196143 -65.52236938 116.16928101 C-65.5269005 117.35399551 -65.53143161 118.53871002 -65.53610003 119.75932497 C-65.54652494 123.02600168 -65.54807765 126.29253894 -65.54571128 129.55922687 C-65.54530137 133.09112088 -65.55635896 136.62298266 -65.56582642 140.15486145 C-65.5824012 147.06722285 -65.58793441 153.97955013 -65.58905117 160.89192975 C-65.59000354 166.51562936 -65.59412323 172.13931777 -65.60045242 177.76301384 C-65.618057 193.73201635 -65.62729279 209.70099203 -65.62579148 225.67000432 C-65.62571156 226.52992782 -65.62563165 227.38985133 -65.62554932 228.27583313 C-65.62546756 229.13681555 -65.62538579 229.99779797 -65.62530155 230.88487076 C-65.62448939 244.82506688 -65.64361166 258.76515476 -65.67182605 272.70531959 C-65.70061483 287.0432868 -65.71436298 301.38120134 -65.7126385 315.71919817 C-65.71197655 323.75903327 -65.7173824 331.79875497 -65.7389946 339.83856392 C-65.75728573 346.68648522 -65.7614893 353.53424174 -65.74797575 360.382177 C-65.74148513 363.869821 -65.74118524 367.35714962 -65.75868225 370.8447628 C-65.86012352 395.60655143 -63.58418228 417.56608045 -45.25494385 436.14717102 C-38.8086316 442.04689151 -32.11534842 446.5743769 -24.12994385 450.14717102 C-23.1997644 450.56531067 -23.1997644 450.56531067 -22.25079346 450.99189758 C-12.86870659 454.88860319 -3.09788036 455.44291805 6.94520569 455.40786743 C8.12487307 455.41169298 9.30454046 455.41551853 10.51995534 455.41946 C13.76317633 455.42793734 17.00625078 455.42757782 20.24947536 455.4232794 C23.75947858 455.42079821 27.26945592 455.42984355 30.77944946 455.43731689 C37.64408 455.45002764 44.50867135 455.45186211 51.37331168 455.44951663 C56.95693436 455.44772916 62.54054521 455.44949228 68.12416649 455.45374107 C68.92071338 455.45433626 69.71726027 455.45493145 70.53794494 455.45554468 C72.15646083 455.45675651 73.77497672 455.45797064 75.3934926 455.45918705 C90.55201656 455.47004873 105.71051823 455.46790667 120.86904343 455.46180221 C134.71344723 455.45663487 148.55778064 455.46788611 162.40217052 455.48690043 C176.64300929 455.50630817 190.8838148 455.51452965 205.12466687 455.51077718 C213.109612 455.50886951 221.09449724 455.51131016 229.07943153 455.52549171 C235.87757004 455.53744402 242.67561177 455.5387675 249.4737517 455.52670155 C252.93680612 455.5208396 256.39968388 455.51963823 259.86272621 455.53170395 C285.48525035 455.60319788 305.84658446 453.22603197 325.37005615 435.02217102 C339.28217586 420.46181634 344.89556563 403.44240989 344.89222717 383.52378845 C344.8977422 381.75668693 344.8977422 381.75668693 344.90336865 379.95388639 C344.91246715 376.69186957 344.91709896 373.42988233 344.91975796 370.16785502 C344.92367307 366.64614128 344.93325064 363.12444193 344.94197083 359.60273743 C344.9617029 351.10082587 344.97179804 342.59891317 344.98069862 334.09698445 C344.98508751 330.0873695 344.99045281 326.07775585 344.99568748 322.06814194 C345.01269773 308.72858517 345.02718959 295.38902921 345.03443623 282.04946327 C345.03634594 278.59033329 345.0382663 275.13120332 345.04022217 271.67207336 C345.04070591 270.81238506 345.04118965 269.95269675 345.04168805 269.06695728 C345.04997975 255.15567504 345.07530303 241.24447902 345.10780285 227.33323438 C345.14094076 213.03152852 345.15889112 198.72986636 345.16208047 184.42812192 C345.16423952 176.40611953 345.17289889 168.38424281 345.19854164 160.36227798 C345.22034099 153.52710166 345.22825406 146.69208156 345.21857486 139.85687442 C345.21405647 136.37532026 345.21577069 132.89408778 345.2353363 129.41257858 C345.3447562 106.13475905 343.85019113 84.84627538 326.85736084 67.20405579 C325.49915823 65.83914086 324.12258881 64.49257463 322.74505615 63.14717102 C322.08763428 62.46912415 321.4302124 61.79107727 320.75286865 61.09248352 C315.09902594 55.63276416 308.06670003 51.90285956 300.74505615 49.14717102 C299.40726183 48.64204609 299.40726183 48.64204609 298.04244137 48.12671661 C285.42852599 44.1020424 272.67664197 44.57404232 259.55206358 44.62427235 C256.01208037 44.63341241 252.47217281 44.6193092 248.9322052 44.60835266 C242.01660494 44.59065676 235.10117928 44.59436743 228.18557245 44.60600322 C222.55962314 44.61507343 216.93372241 44.61624612 211.30776787 44.61190796 C210.5040143 44.61129503 209.70026073 44.61068209 208.872151 44.61005059 C207.2388217 44.60877156 205.60549241 44.6074747 203.97216313 44.60616022 C188.69096904 44.5947804 173.40987126 44.60782683 158.12869298 44.62936169 C145.04707117 44.64722689 131.96559141 44.64412829 118.88397217 44.62568665 C103.65530436 44.60422796 88.42672077 44.59588237 73.19803995 44.6081357 C71.57074671 44.60940976 69.94345346 44.61066724 68.3161602 44.61190796 C67.11549422 44.61283361 67.11549422 44.61283361 65.89057236 44.61377797 C60.27885002 44.61721617 54.66718159 44.61143566 49.05546761 44.60198975 C42.20584421 44.59071247 35.35640391 44.59392894 28.5068012 44.61511272 C25.01912854 44.62554736 21.53175993 44.62987681 18.04409027 44.61651611 C-6.72364295 44.54455742 -27.63268363 46.80922012 -46.25494385 65.14717102 Z " fill="#FFFFFF" transform="translate(110.25494384765625,-0.1471710205078125)"/>
<path d="M0 0 C1.51423039 1.29605655 3.01448398 2.6086289 4.5 3.9375 C5.73943359 4.99904297 5.73943359 4.99904297 7.00390625 6.08203125 C30.56601556 26.62243494 44.3403901 54.08801769 48.25 85 C48.36222634 86.64411589 48.44170229 88.29058981 48.5 89.9375 C48.5515625 91.16210938 48.603125 92.38671875 48.65625 93.6484375 C49.54298876 124.82043253 38.96499317 155.83914523 17.546875 178.734375 C15.79255752 180.62260984 14.16443517 182.54594632 12.5625 184.5625 C11.881875 185.34625 11.20125 186.13 10.5 186.9375 C9.84 186.9375 9.18 186.9375 8.5 186.9375 C8.5 187.5975 8.5 188.2575 8.5 188.9375 C6.68339713 190.55804455 4.87516712 192.03530018 2.9375 193.5 C2.35250732 193.94255127 1.76751465 194.38510254 1.16479492 194.84106445 C-26.26575439 215.21337579 -58.7584848 223.59547693 -92.625 218.75 C-125.10547491 213.59001665 -153.46733869 195.61472166 -173.11547852 169.29467773 C-191.84748517 143.29954668 -199.44766739 109.52395628 -194.4375 77.9375 C-189.86451678 52.27654768 -178.32271581 30.8049957 -160.5 11.9375 C-159.81421875 11.18726563 -159.1284375 10.43703125 -158.421875 9.6640625 C-118.38999798 -32.59180769 -45.17058939 -35.26537461 0 0 Z M-122.5 39.9375 C-123.5003125 40.72898437 -124.500625 41.52046875 -125.53125 42.3359375 C-139.1292276 54.25205998 -148.36852526 72.93746322 -149.64038086 90.92260742 C-150.60904641 111.43850887 -145.44454395 129.72465172 -132.5 145.9375 C-132.00628906 146.58460938 -131.51257813 147.23171875 -131.00390625 147.8984375 C-119.45014172 162.36519082 -100.80535862 171.33249238 -82.6875 173.6875 C-81.2931071 173.79220716 -79.89698382 173.87641516 -78.5 173.9375 C-77.82195312 173.97746094 -77.14390625 174.01742187 -76.4453125 174.05859375 C-55.65684715 174.70585366 -36.83456289 166.72959126 -21.1640625 153.46484375 C-9.4561925 142.35781752 -1.33686426 126.78481069 1.5 110.9375 C1.8403125 109.1740625 1.8403125 109.1740625 2.1875 107.375 C3.94829207 88.00628723 -0.29454696 68.03391319 -12.5625 52.625 C-13.87013554 51.05842673 -15.18259261 49.49586461 -16.5 47.9375 C-17.42619141 46.70773438 -17.42619141 46.70773438 -18.37109375 45.453125 C-29.16473524 32.69880368 -47.70089395 23.418033 -64.23828125 22.03125 C-64.98464844 22.0003125 -65.73101562 21.969375 -66.5 21.9375 C-67.58667969 21.8859375 -68.67335938 21.834375 -69.79296875 21.78125 C-90.0281151 21.27799247 -106.93585193 27.07918802 -122.5 39.9375 Z " fill="#FFFFFF" transform="translate(323.5,152.0625)"/>
<path d="M0 0 C5.25050475 3.6561734 8.76668237 8.11043808 10.7109375 14.19140625 C11.83699448 21.15627722 10.76938271 26.81046742 7.34375 32.95703125 C4.07729887 37.42691175 -0.05672557 40.44729394 -5.2890625 42.19140625 C-12.98228325 42.833385 -19.99352392 43.09253826 -26.2890625 38.19140625 C-31.83229731 33.31907883 -34.79513202 28.61302826 -35.2890625 21.19140625 C-35.48264285 13.62886734 -33.00714767 8.12937818 -27.8359375 2.65234375 C-20.1821625 -4.23605375 -8.84962349 -5.1833509 0 0 Z " fill="#FFFFFF" transform="translate(402.2890625,89.80859375)"/>
</svg>
