<?xml version="1.0" encoding="UTF-8"?>
<svg version="1.1" xmlns="http://www.w3.org/2000/svg" width="500" height="500">
<path d="M0 0 C7.4180535 6.81307632 10.56552738 17.38074549 14.11083984 26.55859375 C14.63431475 27.893223 15.15881783 29.2274494 15.68432617 30.5612793 C16.71442951 33.17699551 17.74116996 35.79398522 18.76513672 38.41210938 C20.59155502 43.06048329 22.46134957 47.68967086 24.36083984 52.30859375 C24.63984131 52.99445557 24.91884277 53.68031738 25.20629883 54.38696289 C26.32112104 57.41814151 26.32112104 57.41814151 28.17333984 59.99609375 C30.21794039 59.89976758 32.25953223 59.74007003 34.29833984 59.55859375 C73.227026 56.52293683 73.227026 56.52293683 82.17333984 60.99609375 C82.34580734 60.38887482 82.51827484 59.78165588 82.69596863 59.15603638 C84.48663571 53.00273034 86.59028695 47.05958457 88.97412109 41.11328125 C89.33297897 40.21417023 89.69183685 39.3150592 90.06156921 38.38870239 C90.81635792 36.50376197 91.57361562 34.61980845 92.33325195 32.73681641 C93.48386691 29.87599912 94.61680737 27.00857255 95.74951172 24.140625 C96.48997032 22.29774364 97.23147198 20.45528096 97.97412109 18.61328125 C98.47133415 17.3442244 98.47133415 17.3442244 98.97859192 16.04953003 C102.27500245 7.98370672 106.43596848 1.29463339 114.17333984 -3.00390625 C144.37237126 -13.07025006 191.45746369 6.86499184 217.86083984 19.99609375 C246.68366384 34.71902845 246.68366384 34.71902845 252.00537109 49.27734375 C252.26675369 49.98476212 252.52813629 50.69218048 252.79743958 51.42103577 C255.46952143 58.70839839 257.97031427 66.04934975 260.36083984 73.43359375 C260.70642441 74.50049942 260.70642441 74.50049942 261.05899048 75.58895874 C284.77037802 149.19728292 318.86828161 262.3062831 282.50683594 335.87792969 C280.85138263 338.99655747 279.04731006 342.00455584 277.17333984 344.99609375 C276.72684082 345.71394043 276.2803418 346.43178711 275.8203125 347.17138672 C269.36039664 357.44285008 262.42147605 367.09095629 254.17333984 375.99609375 C253.61807617 376.60050293 253.0628125 377.20491211 252.49072266 377.82763672 C235.35516131 396.27588934 213.0876463 412.23390799 187.04443359 413.44165039 C174.24357569 413.74353187 165.58690256 410.12730519 155.79833984 401.55859375 C154.24448391 400.05021652 152.70193646 398.53006329 151.17333984 396.99609375 C150.51205078 396.39410156 149.85076172 395.79210937 149.16943359 395.171875 C137.43881625 384.24699703 129.50002881 370.06871757 122.17333984 355.99609375 C121.78645996 355.2676123 121.39958008 354.53913086 121.00097656 353.78857422 C120.63375488 353.0823291 120.2665332 352.37608398 119.88818359 351.6484375 C119.55810303 351.01800537 119.22802246 350.38757324 118.88793945 349.73803711 C118.17333984 347.99609375 118.17333984 347.99609375 118.17333984 344.99609375 C117.26269775 345.11202881 116.35205566 345.22796387 115.41381836 345.34741211 C80.4691026 349.76824894 80.4691026 349.76824894 68.17333984 349.99609375 C67.22990723 350.01655762 66.28647461 350.03702148 65.31445312 350.05810547 C40.8027419 350.5151739 16.53788132 348.47473758 -7.82666016 345.99609375 C-8.20435547 347.01445312 -8.58205078 348.0328125 -8.97119141 349.08203125 C-17.97241785 372.53620734 -34.29875805 400.70091494 -57.82666016 411.99609375 C-72.00895898 416.72352669 -89.20946209 411.85137665 -102.07666016 405.74609375 C-112.50975451 400.22407309 -121.28823959 393.08581834 -129.82666016 384.99609375 C-130.71224609 384.17496094 -131.59783203 383.35382813 -132.51025391 382.5078125 C-161.45719699 354.79265422 -176.68202004 317.68128882 -177.9543457 278.01538086 C-179.46765491 203.94590979 -163.03445249 131.27867807 -140.82666016 60.99609375 C-140.56773987 60.1736618 -140.30881958 59.35122986 -140.04205322 58.50387573 C-139.26012816 56.035725 -138.46559748 53.57201487 -137.66650391 51.109375 C-137.31178764 49.98962784 -137.31178764 49.98962784 -136.9499054 48.84725952 C-135.00985082 42.95382135 -132.63319168 38.89354285 -127.82666016 34.99609375 C-126.81925781 34.17044922 -126.81925781 34.17044922 -125.79150391 33.328125 C-107.09362804 19.31273606 -84.1238741 9.54954474 -61.82666016 2.99609375 C-61.16778809 2.80176758 -60.50891602 2.60744141 -59.83007812 2.40722656 C-14.11299455 -10.74662174 -14.11299455 -10.74662174 0 0 Z M-70.73974609 56.11474609 C-72.2325177 56.74517491 -73.75034471 57.31752715 -75.28076172 57.85009766 C-82.91211388 60.52064363 -90.15911475 63.61319966 -94.5078125 70.75830078 C-98.11469637 78.73004582 -100.15484933 87.17938505 -102.23474121 95.6451416 C-103.29363722 99.85080841 -104.46352632 104.02616917 -105.61572266 108.20703125 C-108.50206951 118.76652986 -111.20275748 129.36861647 -113.82666016 139.99609375 C-114.00797485 140.72866394 -114.18928955 141.46123413 -114.37609863 142.21600342 C-121.90741058 172.75038801 -127.04898504 203.6725503 -129.82666016 234.99609375 C-129.89723633 235.72908691 -129.9678125 236.46208008 -130.04052734 237.21728516 C-133.60091502 274.31878532 -131.0218142 308.15707527 -108.04394531 338.39111328 C-106.90624682 339.89115938 -105.79319694 341.40981119 -104.68212891 342.9296875 C-100.53858773 348.34934711 -96.01960718 352.76884558 -90.70166016 356.99609375 C-90.12770508 357.45330811 -89.55375 357.91052246 -88.96240234 358.3815918 C-84.79432081 361.56252752 -80.07145347 365.08223871 -74.61962891 364.9375 C-67.71909671 361.31434475 -63.56040411 352.13108235 -59.82666016 345.55859375 C-59.22978394 344.51143188 -59.22978394 344.51143188 -58.62084961 343.44311523 C-56.39751066 339.45924236 -56.39751066 339.45924236 -55.82666016 334.99609375 C-57.545625 334.45082031 -57.545625 334.45082031 -59.29931641 333.89453125 C-77.48554808 327.94321955 -77.48554808 327.94321955 -82.26416016 318.80859375 C-84.65718285 312.60754364 -85.0400201 306.53671784 -82.87353516 300.21484375 C-79.88709195 293.78832039 -76.61653723 290.08219886 -70.07666016 287.24609375 C-60.61533423 284.13457365 -52.22334689 287.01116821 -43.01416016 289.68359375 C-32.93900964 292.50428072 -22.88640064 294.97275391 -12.57666016 296.80859375 C-11.07655396 297.08159302 -11.07655396 297.08159302 -9.54614258 297.36010742 C-5.98081812 297.96827526 -2.40870155 298.49854444 1.17333984 298.99609375 C2.0634375 299.12137451 2.95353516 299.24665527 3.87060547 299.37573242 C19.68328148 301.54648043 35.24833144 302.47489382 51.20507812 302.38720703 C54.67276298 302.37109643 58.139283 302.38719429 61.60693359 302.40625 C77.31077178 302.42113233 92.62745331 301.18416884 108.17333984 298.99609375 C108.90939453 298.89385498 109.64544922 298.79161621 110.40380859 298.6862793 C114.2594722 298.14009248 118.09231635 297.50578879 121.92333984 296.80859375 C123.0503833 296.60790283 124.17742676 296.40721191 125.33862305 296.20043945 C135.76589753 294.25037954 145.95770696 291.54172698 156.13916016 288.5871582 C172.35927805 283.97640261 172.35927805 283.97640261 180.04833984 287.93359375 C180.76763672 288.29324219 181.48693359 288.65289062 182.22802734 289.0234375 C182.86998047 289.34441406 183.51193359 289.66539062 184.17333984 289.99609375 C185.16333984 290.32609375 186.15333984 290.65609375 187.17333984 290.99609375 C188.22802734 292.76171875 188.22802734 292.76171875 189.17333984 294.99609375 C189.70314453 296.13304687 189.70314453 296.13304687 190.24365234 297.29296875 C193.26673007 304.32442361 194.44777772 309.6503857 191.98583984 317.12109375 C189.35109562 323.3420176 185.58804005 327.31436344 179.50537109 330.12890625 C175.88384886 331.47560296 172.1648696 332.35285263 168.39599609 333.1875 C167.66251953 333.45433594 166.92904297 333.72117187 166.17333984 333.99609375 C165.84333984 334.98609375 165.51333984 335.97609375 165.17333984 336.99609375 C166.53905837 339.61923594 167.94581217 342.02329455 169.54833984 344.49609375 C170.00152588 345.20717285 170.45471191 345.91825195 170.92163086 346.65087891 C177.82027272 357.47750957 177.82027272 357.47750957 187.17333984 365.99609375 C206.69510027 362.02010218 222.43751082 341.5267352 232.94287109 325.93359375 C245.85388923 306.26532014 247.77730456 285.619388 247.61083984 262.49609375 C247.60746613 261.57333649 247.60409241 260.65057922 247.60061646 259.69985962 C247.31353788 204.81736407 234.28111964 150.56596408 218.46337891 98.28808594 C217.63880129 95.55955846 216.83160622 92.82730347 216.04736328 90.08691406 C215.07836389 86.71319183 214.07052137 83.35401276 213.04833984 79.99609375 C212.78472656 79.04782715 212.52111328 78.09956055 212.24951172 77.12255859 C210.36474365 71.18686336 208.0137763 68.39231583 202.62207031 65.26171875 C201.81398926 64.8440625 201.0059082 64.42640625 200.17333984 63.99609375 C199.41553223 63.5990625 198.65772461 63.20203125 197.87695312 62.79296875 C195.54166377 61.62955738 193.18503998 60.54981553 190.79833984 59.49609375 C189.93474854 59.11300049 189.07115723 58.72990723 188.18139648 58.33520508 C176.06028157 53.08121503 163.63072514 49.37505934 150.73583984 46.55859375 C149.93654053 46.38223389 149.13724121 46.20587402 148.3137207 46.02416992 C143.15876423 44.88165643 143.15876423 44.88165643 138.17333984 45.99609375 C136.8823063 48.03881099 136.8823063 48.03881099 136.03271484 50.6171875 C135.68466797 51.55240234 135.33662109 52.48761719 134.97802734 53.45117188 C134.62998047 54.43537109 134.28193359 55.41957031 133.92333984 56.43359375 C133.55982422 57.41392578 133.19630859 58.39425781 132.82177734 59.40429688 C130.9184826 64.0835554 130.9184826 64.0835554 130.17333984 68.99609375 C131.09034668 69.21749023 132.00735352 69.43888672 132.95214844 69.66699219 C136.40155064 70.50355383 139.84918996 71.34677233 143.29589844 72.19433594 C144.77898324 72.55763224 146.26269582 72.9183768 147.74707031 73.27636719 C171.47736071 79.0049201 171.47736071 79.0049201 176.17333984 84.93359375 C176.97771484 85.90619141 176.97771484 85.90619141 177.79833984 86.8984375 C181.76186528 92.9450658 182.03133115 98.94830799 181.17333984 105.99609375 C179.25623488 111.8028621 176.61471131 116.90440542 171.17333984 119.99609375 C162.74535991 123.70052255 155.50198837 123.63321081 146.68505859 121.203125 C145.25509187 120.81826871 143.82507688 120.43359169 142.39501953 120.04907227 C141.65521851 119.84629669 140.91541748 119.64352112 140.15319824 119.43460083 C124.28183064 115.10037958 108.42232715 111.62907246 92.17333984 108.99609375 C91.07916748 108.80926025 91.07916748 108.80926025 89.96289062 108.61865234 C48.2260169 101.53482288 5.98865765 108.92507221 -34.26904297 120.09985352 C-43.88236168 122.73812704 -52.37467454 124.99710664 -61.75244141 120.31640625 C-67.3814058 116.7333743 -70.59084779 111.75200233 -72.42431641 105.39453125 C-73.52217888 98.84999182 -72.45873235 92.5739189 -68.82666016 86.99609375 C-63.19826617 80.4296341 -56.70112769 77.62080451 -48.52197266 75.70703125 C-47.75738739 75.51766998 -46.99280212 75.32830872 -46.20504761 75.13320923 C-43.78959355 74.53573258 -41.37113039 73.95207543 -38.95166016 73.37109375 C-36.51102733 72.78207488 -34.07137729 72.18992175 -31.63400269 71.58755493 C-30.12353056 71.2144422 -28.6111145 70.84909664 -27.09671021 70.49227905 C-25.32366598 70.05526575 -23.57195176 69.53333082 -21.82666016 68.99609375 C-20.53830193 66.99998097 -20.53830193 66.99998097 -21.53930664 64.74951172 C-21.92159424 63.83830566 -22.30388184 62.92709961 -22.69775391 61.98828125 C-23.10703125 61.00214844 -23.51630859 60.01601562 -23.93798828 59 C-24.59444336 57.45119141 -24.59444336 57.45119141 -25.26416016 55.87109375 C-25.69792969 54.83082031 -26.13169922 53.79054688 -26.57861328 52.71875 C-27.65441437 50.14155618 -28.73735393 47.5676018 -29.82666016 44.99609375 C-43.03617419 44.99609375 -58.68279728 50.73601067 -70.73974609 56.11474609 Z " fill="#FEFEFE" transform="translate(190.82666015625,46.00390625)"/>
<path d="M0 0 C9.33256049 8.66336526 14.39874783 19.59292146 15.703125 32.18359375 C16.06952785 46.91936042 11.46918775 59.1008804 1.453125 69.87109375 C-8.42037999 79.20328816 -19.842798 82.70680848 -33.23706055 82.60546875 C-47.49424766 82.09078108 -58.49046516 75.84073089 -68.21875 65.73828125 C-76.9783455 54.96990633 -79.27958029 42.70371658 -78.296875 29.18359375 C-76.76939061 18.11627501 -71.75038613 8.58041599 -63.296875 1.18359375 C-62.76320313 0.69375 -62.22953125 0.20390625 -61.6796875 -0.30078125 C-44.09921771 -16.08413635 -17.9860055 -14.2236268 0 0 Z " fill="#FEFEFE" transform="translate(346.296875,214.81640625)"/>
<path d="M0 0 C9.33256049 8.66336526 14.39874783 19.59292146 15.703125 32.18359375 C16.06952785 46.91936042 11.46918775 59.1008804 1.453125 69.87109375 C-8.42037999 79.20328816 -19.842798 82.70680848 -33.23706055 82.60546875 C-47.49424766 82.09078108 -58.49046516 75.84073089 -68.21875 65.73828125 C-76.9783455 54.96990633 -79.27958029 42.70371658 -78.296875 29.18359375 C-76.76939061 18.11627501 -71.75038613 8.58041599 -63.296875 1.18359375 C-62.76320312 0.69375 -62.22953125 0.20390625 -61.6796875 -0.30078125 C-44.09921771 -16.08413635 -17.9860055 -14.2236268 0 0 Z " fill="#FEFEFE" transform="translate(207.296875,214.81640625)"/>
</svg>
