<svg xmlns="http://www.w3.org/2000/svg" xmlns:xlink="http://www.w3.org/1999/xlink" width="500" zoomAndPan="magnify" viewBox="0 0 375 374.999991" height="500" preserveAspectRatio="xMidYMid meet" version="1.0"><defs><clipPath id="6ce358c411"><path d="M 0 11.015625 L 358 11.015625 L 358 299 L 0 299 Z M 0 11.015625 " clip-rule="nonzero"/></clipPath></defs><path fill="#fefefe" d="M 218.789062 76.140625 C 264.722656 76.140625 310.65625 76.128906 356.589844 76.105469 C 360.5625 76.105469 364.359375 76.300781 367.871094 78.46875 C 372.246094 81.183594 375.015625 86.6875 374.136719 91.695312 C 370.972656 109.605469 367.6875 127.492188 364.535156 145.414062 C 360.597656 167.664062 356.683594 189.917969 352.792969 212.175781 C 352.476562 213.964844 352.007812 215.726562 351.574219 217.496094 C 349.726562 224.976562 345.664062 228.679688 338.082031 229.3125 C 323.292969 230.523438 308.488281 231.496094 293.703125 232.722656 C 277.902344 234.039062 262.113281 235.550781 246.308594 236.945312 C 239.574219 237.542969 232.832031 238.089844 226.089844 238.597656 C 209.976562 239.792969 193.898438 240.894531 177.808594 242.136719 C 157.835938 243.671875 137.867188 245.265625 117.902344 246.917969 C 112.984375 247.3125 108.074219 248.109375 103.152344 248.179688 C 96.136719 248.277344 91.207031 244.417969 89.78125 237.46875 C 87.484375 226.285156 85.597656 215.007812 83.558594 203.769531 C 78.953125 178.476562 74.355469 153.179688 69.769531 127.878906 C 67.683594 116.390625 65.578125 104.894531 63.546875 93.394531 C 61.875 83.929688 68.070312 76.492188 77.867188 76.203125 C 82.042969 76.085938 86.222656 76.175781 90.394531 76.175781 Z M 162.015625 141.714844 L 148.742188 141.714844 C 148.480469 141.714844 148.207031 141.714844 147.964844 141.714844 C 141.367188 141.683594 140.703125 140.882812 141.253906 148.34375 C 141.90625 157.148438 142.511719 165.953125 143.242188 174.746094 C 143.566406 178.570312 144.433594 179.238281 148.15625 178.996094 C 154.375 178.59375 160.585938 178.167969 166.792969 177.710938 C 170.921875 177.402344 175.042969 176.921875 179.179688 176.671875 C 181.863281 176.507812 183.765625 176.097656 182.664062 172.605469 C 182.214844 171.175781 182.503906 169.503906 182.476562 167.941406 C 182.359375 160.421875 182.175781 152.851562 182.164062 145.304688 C 182.164062 142.59375 181.015625 141.648438 178.40625 141.695312 C 172.949219 141.785156 167.492188 141.714844 162.015625 141.714844 Z M 220.242188 93.273438 C 214.003906 93.273438 207.761719 93.34375 201.527344 93.242188 C 198.910156 93.203125 197.699219 94.101562 197.851562 96.847656 C 198.320312 105.652344 198.683594 114.460938 199.097656 123.269531 C 199.1875 125.1875 200.261719 125.957031 202.121094 125.957031 C 205.242188 125.929688 208.363281 125.957031 211.480469 125.957031 C 220.074219 125.957031 228.667969 125.925781 237.21875 125.957031 C 239.652344 125.957031 241.363281 125.167969 241.421875 122.527344 C 241.621094 113.6875 241.75 104.851562 241.863281 96.015625 C 241.863281 94.140625 240.90625 93.230469 238.960938 93.242188 C 232.722656 93.300781 226.484375 93.273438 220.242188 93.273438 Z M 282.519531 93.273438 C 276.277344 93.273438 270.042969 93.328125 263.800781 93.273438 C 261.039062 93.242188 259.234375 94.117188 259.1875 97.167969 C 259.050781 105.765625 258.949219 114.328125 258.789062 122.90625 C 258.746094 125.296875 259.984375 126 262.167969 125.992188 C 274.128906 125.960938 286.085938 125.992188 298.050781 125.992188 C 299.8125 125.992188 301.085938 125.347656 301.230469 123.398438 C 301.886719 114.609375 302.488281 105.816406 303.175781 97.03125 C 303.378906 94.40625 302.40625 93.226562 299.675781 93.269531 C 293.960938 93.351562 288.242188 93.28125 282.519531 93.273438 Z M 159.152344 93.273438 C 152.910156 93.273438 146.667969 93.199219 140.425781 93.300781 C 136.667969 93.359375 136.429688 93.5 136.667969 97.398438 C 137.160156 105.6875 137.929688 113.960938 138.542969 122.238281 C 138.769531 125.289062 140.578125 126 143.3125 126 C 154.496094 125.925781 165.683594 125.898438 176.871094 126.027344 C 179.867188 126.0625 181.113281 125.070312 181.039062 122.03125 C 180.824219 113.707031 180.640625 105.378906 180.6875 97.0625 C 180.6875 93.746094 179.039062 93.214844 176.328125 93.257812 C 170.601562 93.328125 164.878906 93.269531 159.152344 93.273438 Z M 220.492188 141.722656 C 214.761719 141.722656 209.023438 141.777344 203.304688 141.695312 C 200.882812 141.664062 199.289062 142.140625 199.441406 145.078125 C 199.914062 154.425781 200.28125 163.785156 200.699219 173.136719 C 200.785156 174.976562 201.65625 175.972656 203.648438 175.859375 C 212.996094 175.324219 222.347656 174.859375 231.691406 174.296875 C 233.5 174.183594 235.269531 173.628906 237.066406 173.464844 C 239.4375 173.25 240.007812 171.851562 240.023438 169.746094 C 240.101562 161.6875 240.121094 153.582031 240.410156 145.507812 C 240.535156 142.164062 238.898438 141.625 236.144531 141.679688 C 230.925781 141.785156 225.710938 141.710938 220.492188 141.722656 Z M 279.105469 141.722656 C 273.109375 141.722656 267.121094 141.75 261.125 141.722656 C 259.019531 141.722656 257.65625 142.257812 257.632812 144.746094 C 257.558594 153.082031 257.390625 161.398438 257.257812 169.757812 C 257.21875 172.121094 258.332031 172.867188 260.671875 172.707031 C 268.730469 172.167969 276.761719 171.832031 284.804688 171.308594 C 287.902344 171.109375 290.980469 170.535156 294.082031 170.308594 C 296.03125 170.164062 296.808594 169.085938 297.074219 167.382812 C 297.390625 165.335938 297.761719 163.296875 297.949219 161.238281 C 298.429688 156.066406 298.765625 150.882812 299.28125 145.71875 C 299.617188 142.320312 299.324219 141.8125 295.519531 141.742188 C 290.050781 141.628906 284.59375 141.707031 279.105469 141.707031 Z M 107.0625 141.722656 C 103.40625 141.722656 99.753906 141.667969 96.101562 141.722656 C 90.789062 141.820312 90.488281 141.898438 91.226562 146.945312 C 92.742188 157.226562 94.574219 167.453125 96.367188 177.6875 C 96.691406 179.542969 97.597656 181.1875 99.9375 181.101562 C 107.230469 180.851562 114.542969 180.785156 121.816406 180.226562 C 125.667969 179.929688 126.113281 179.152344 125.882812 175.144531 C 125.316406 166.050781 124.546875 156.96875 123.824219 147.882812 C 123.765625 147.117188 123.285156 146.386719 123.238281 145.621094 C 123.042969 142.8125 121.875 141.457031 118.800781 141.652344 C 114.902344 141.894531 110.972656 141.710938 107.0625 141.707031 Z M 184.089844 208.972656 L 183.671875 208.972656 C 183.671875 204.539062 183.71875 200.101562 183.671875 195.671875 C 183.632812 193.03125 182.257812 192.050781 179.585938 192.449219 C 176.503906 192.878906 173.382812 193.03125 170.273438 193.246094 C 163.289062 193.730469 156.261719 194.269531 149.253906 194.597656 C 146.472656 194.726562 145.660156 196.003906 145.863281 198.539062 C 146.558594 207.097656 147.179688 215.660156 147.839844 224.222656 C 148.050781 226.90625 150.03125 226.761719 151.863281 226.644531 C 161.472656 226.019531 171.074219 225.28125 180.683594 224.738281 C 183.476562 224.582031 184.179688 223.183594 184.132812 220.730469 C 184.03125 216.796875 184.089844 212.882812 184.089844 208.972656 Z M 100.085938 93.28125 C 95.148438 93.28125 90.21875 93.367188 85.285156 93.246094 C 82.503906 93.183594 81.527344 94.320312 82.011719 97.007812 C 83.5625 105.386719 85.179688 113.761719 86.582031 122.167969 C 87.070312 125.117188 88.621094 126.015625 91.363281 125.992188 C 100.195312 125.929688 109.019531 125.90625 117.84375 125.992188 C 120.691406 126.019531 121.421875 124.644531 121.21875 122.148438 C 120.546875 113.886719 119.875 105.625 119.300781 97.363281 C 119.101562 94.484375 117.816406 93.1875 114.886719 93.253906 C 109.953125 93.355469 105.015625 93.28125 100.085938 93.28125 Z M 238.828125 205.46875 C 238.828125 200.605469 238.875 196.164062 238.828125 191.734375 C 238.828125 189.894531 237.988281 189.144531 235.863281 189.304688 C 228.59375 189.84375 221.300781 190.046875 214.019531 190.503906 C 210.65625 190.71875 207.320312 191.339844 203.957031 191.542969 C 201.53125 191.691406 200.945312 192.921875 200.988281 195.078125 C 201.15625 202.386719 201.1875 209.695312 201.355469 217 C 201.386719 218.28125 201.527344 219.71875 202.148438 220.761719 C 202.6875 221.644531 204 222.640625 204.929688 222.597656 C 211.425781 222.304688 217.929688 221.90625 224.398438 221.230469 C 228.96875 220.746094 233.492188 219.777344 238.039062 219.027344 C 238.296875 214.359375 238.574219 209.695312 238.828125 205.46875 Z M 256.015625 203.726562 L 255.808594 203.726562 C 255.808594 207.113281 255.769531 210.5 255.808594 213.886719 C 255.871094 218.402344 255.914062 218.609375 260.011719 218.28125 C 270.105469 217.464844 280.179688 216.425781 290.261719 215.496094 C 291.992188 215.339844 293.15625 214.777344 293.308594 212.761719 C 293.84375 205.511719 294.589844 198.257812 294.992188 191.011719 C 295.257812 186.386719 294.628906 185.996094 290.277344 186.410156 C 287.691406 186.652344 285.105469 186.859375 282.507812 186.945312 C 277.042969 187.160156 271.550781 187.03125 266.109375 187.515625 C 256.160156 188.402344 256.171875 188.542969 256.015625 198.257812 C 255.996094 200.0625 256.023438 201.886719 256.023438 203.710938 Z M 339.007812 93.28125 C 334.835938 93.28125 330.667969 93.226562 326.492188 93.28125 C 321.890625 93.351562 321.546875 93.355469 320.988281 97.742188 C 319.945312 105.984375 319.375 114.277344 318.558594 122.550781 C 318.34375 124.789062 319.1875 125.960938 321.582031 125.949219 C 329.925781 125.917969 338.269531 125.886719 346.609375 125.984375 C 349.480469 126.015625 350.820312 124.847656 351.292969 122.007812 C 352.6875 113.5625 354.25 105.144531 355.796875 96.730469 C 356.210938 94.457031 355.574219 93.238281 353.109375 93.257812 C 348.394531 93.3125 343.683594 93.28125 339.007812 93.28125 Z M 130.3125 223.8125 C 129.742188 216.292969 129.195312 208.773438 128.578125 201.25 C 128.492188 200.230469 127.933594 199.246094 127.824219 198.226562 C 127.578125 195.921875 126.398438 195.179688 124.136719 195.359375 C 117.652344 195.863281 111.152344 196.21875 104.664062 196.648438 C 100.617188 196.917969 100.101562 197.398438 100.769531 201.371094 C 102.238281 210.078125 103.894531 218.757812 105.4375 227.453125 C 105.8125 229.605469 106.898438 230.738281 109.125 230.566406 C 114.574219 230.144531 120.019531 229.695312 125.46875 229.28125 C 130.566406 228.890625 130.566406 228.90625 130.3125 223.835938 Z M 332.617188 141.710938 C 328.441406 141.710938 324.269531 141.757812 320.101562 141.710938 C 317.800781 141.671875 316.925781 142.738281 316.753906 144.964844 C 316.21875 151.949219 315.519531 158.933594 314.910156 165.949219 C 314.644531 168.984375 315.292969 169.707031 318.136719 169.488281 C 322.28125 169.183594 326.414062 168.738281 330.558594 168.460938 C 333.679688 168.265625 336.851562 168.460938 339.929688 168.027344 C 341.175781 167.84375 343.015625 166.542969 343.242188 165.46875 C 344.644531 158.867188 345.652344 152.1875 346.804688 145.53125 C 347.246094 142.957031 346.394531 141.605469 343.582031 141.683594 C 339.921875 141.792969 336.269531 141.710938 332.617188 141.710938 Z M 315.867188 213.746094 C 321.480469 213.210938 326.648438 212.671875 331.828125 212.253906 C 333.929688 212.074219 335.242188 211.179688 335.585938 209.03125 C 336.894531 201.355469 338.230469 193.683594 339.414062 185.992188 C 339.507812 185.382812 338.515625 184.003906 338.074219 184.023438 C 330.285156 184.382812 322.503906 184.839844 314.730469 185.394531 C 312.761719 185.539062 312.542969 187.226562 312.410156 188.878906 C 311.917969 195.09375 311.335938 201.304688 310.835938 207.527344 C 310.726562 208.820312 310.433594 210.210938 310.835938 211.394531 C 311.144531 212.332031 312.246094 213.234375 313.214844 213.65625 C 314.09375 214.0625 315.265625 213.746094 315.867188 213.746094 Z M 315.867188 213.746094 " fill-opacity="1" fill-rule="nonzero"/><g clip-path="url(#6ce358c411)"><path fill="#fefefe" d="M 225.070312 298.535156 C 185.121094 298.535156 145.164062 298.449219 105.222656 298.609375 C 97.164062 298.640625 90.511719 296.292969 84.949219 290.445312 C 77.132812 282.230469 76.546875 269.203125 82.113281 259.152344 C 84.132812 255.507812 86.410156 251.988281 88.1875 248.234375 C 89.070312 246.371094 89.375 244.417969 89.101562 242.378906 C 83.789062 212.453125 78.261719 182.558594 72.949219 152.636719 C 68.015625 125.003906 63.277344 97.347656 58.417969 69.699219 C 56.804688 60.480469 55.121094 51.277344 53.621094 42.042969 C 53.046875 38.53125 51.472656 36.671875 47.761719 36.066406 C 37.496094 34.390625 27.289062 32.347656 17.082031 30.464844 C 14.015625 29.898438 10.914062 29.492188 7.875 28.820312 C 3.039062 27.746094 0.0234375 23.726562 0.515625 19.261719 C 1.054688 14.59375 5.351562 11.101562 10.621094 11.742188 C 17.066406 12.554688 23.441406 13.847656 29.839844 15.007812 C 41.089844 17.042969 52.316406 19.203125 63.585938 21.144531 C 66.308594 21.609375 67.621094 22.691406 68.074219 25.511719 C 69.332031 33.195312 70.917969 40.832031 72.3125 48.496094 C 76.445312 71.25 80.628906 93.996094 84.636719 116.769531 C 89.636719 145.179688 94.433594 173.628906 99.410156 202.046875 C 101.828125 215.855469 104.4375 229.640625 107 243.410156 C 107.675781 247.046875 107.589844 250.285156 105.335938 253.613281 C 102.300781 258.144531 100.28125 263.347656 97.277344 267.910156 C 93.699219 273.355469 96.933594 281.972656 105.230469 281.230469 C 107.042969 281.070312 108.886719 281.230469 110.710938 281.230469 L 344.144531 281.230469 C 346.230469 281.230469 348.351562 281.066406 350.398438 281.359375 C 350.949219 281.4375 351.488281 281.566406 352.019531 281.746094 C 352.546875 281.929688 353.050781 282.160156 353.535156 282.4375 C 354.015625 282.71875 354.46875 283.039062 354.890625 283.40625 C 355.308594 283.773438 355.691406 284.175781 356.035156 284.617188 C 356.378906 285.054688 356.675781 285.523438 356.925781 286.023438 C 357.179688 286.519531 357.382812 287.039062 357.535156 287.574219 C 357.6875 288.109375 357.785156 288.65625 357.832031 289.214844 C 357.878906 289.769531 357.871094 290.324219 357.808594 290.878906 C 357.386719 295.589844 354.613281 298.210938 349.613281 298.496094 C 347.535156 298.621094 345.4375 298.539062 343.351562 298.539062 Z M 225.070312 298.535156 " fill-opacity="1" fill-rule="nonzero"/></g><path fill="#fefefe" d="M 293.425781 334.839844 C 292.351562 321.410156 305.242188 305.6875 321.859375 305.953125 C 337.675781 306.199219 350.796875 317.296875 351.019531 334.152344 C 351.242188 350.058594 340.277344 363.53125 322.191406 363.53125 C 303.394531 363.527344 292.78125 347.871094 293.425781 334.839844 Z M 322.433594 321.648438 C 314.628906 321.648438 308.910156 327.257812 309.039062 334.835938 C 309.164062 342.105469 315.335938 348.035156 322.792969 348.042969 C 328.890625 348.042969 335.625 340.917969 335.570312 334.503906 C 335.492188 327.648438 329.382812 321.667969 322.410156 321.648438 Z M 322.433594 321.648438 " fill-opacity="1" fill-rule="nonzero"/><path fill="#fefefe" d="M 160.554688 334.925781 C 160.492188 350.667969 147.707031 363.855469 132.585938 363.777344 C 116.089844 363.699219 103.890625 350.949219 103.421875 334.40625 C 102.992188 319.042969 116.851562 305.695312 132.25 305.8125 C 147.03125 305.945312 161.925781 319.515625 160.554688 334.925781 Z M 144.929688 335.640625 C 145.261719 328.121094 140.308594 322.117188 133.417969 321.675781 C 125.542969 321.195312 119.65625 326.304688 119.171875 333.714844 C 118.671875 341.328125 123.765625 347.375 131.527344 347.78125 C 132.367188 347.839844 133.207031 347.8125 134.046875 347.699219 C 134.882812 347.589844 135.699219 347.394531 136.496094 347.117188 C 137.292969 346.84375 138.054688 346.488281 138.78125 346.058594 C 139.507812 345.628906 140.183594 345.128906 140.8125 344.5625 C 141.4375 343.996094 142 343.371094 142.5 342.691406 C 143 342.011719 143.425781 341.289062 143.78125 340.523438 C 144.132812 339.753906 144.40625 338.960938 144.601562 338.140625 C 144.792969 337.316406 144.902344 336.484375 144.929688 335.640625 Z M 144.929688 335.640625 " fill-opacity="1" fill-rule="nonzero"/></svg>